<svg width="28" height="28" viewBox="0 0 28 28" fill="none" xmlns="http://www.w3.org/2000/svg">
<g clip-path="url(#clip0_1_934)">
<path d="M14 3.99999C19.5167 3.99999 24 8.48333 24 14C24 19.5167 19.5167 24 14 24C8.48333 24 3.99999 19.5167 3.99999 14C3.99999 8.48333 8.48333 3.99999 14 3.99999ZM14 2.33333C7.55833 2.33333 2.33333 7.55833 2.33333 14C2.33333 20.4417 7.55833 25.6667 14 25.6667C20.4417 25.6667 25.6667 20.4417 25.6667 14C25.6667 7.55833 20.4417 2.33333 14 2.33333Z" fill="#141414"/>
<path d="M14 17.0712C13.5187 17.0712 13.125 16.6775 13.125 16.1962V7.44624C13.125 6.96499 13.5187 6.57124 14 6.57124C14.4813 6.57124 14.875 6.96499 14.875 7.44624V16.1962C14.875 16.6775 14.4813 17.0712 14 17.0712Z" fill="#141414"/>
<path d="M14 21.4113C13.5187 21.4113 13.125 21.0175 13.125 20.5363V19.6613C13.125 19.18 13.5187 18.7863 14 18.7863C14.4813 18.7863 14.875 19.18 14.875 19.6613V20.5363C14.875 21.0175 14.4813 21.4113 14 21.4113Z" fill="#141414"/>
<circle cx="22" cy="6" r="6" fill="#B71C1C"/>
<path d="M20.8115 6.33398L19.6885 6.06543L20.0938 2.46191H24.0879V3.59961H21.251L21.0752 5.17676C21.1696 5.12142 21.3128 5.06283 21.5049 5.00098C21.6969 4.93587 21.9118 4.90332 22.1494 4.90332C22.4945 4.90332 22.8005 4.95703 23.0674 5.06445C23.3343 5.17188 23.5605 5.32812 23.7461 5.5332C23.9349 5.73828 24.0781 5.98893 24.1758 6.28516C24.2734 6.58138 24.3223 6.91667 24.3223 7.29102C24.3223 7.60677 24.2734 7.90788 24.1758 8.19434C24.0781 8.47754 23.93 8.73145 23.7314 8.95605C23.5329 9.17741 23.2839 9.35156 22.9844 9.47852C22.6849 9.60547 22.3301 9.66895 21.9199 9.66895C21.6139 9.66895 21.3177 9.62337 21.0312 9.53223C20.748 9.44108 20.4925 9.30599 20.2646 9.12695C20.04 8.94792 19.8594 8.73145 19.7227 8.47754C19.5892 8.22038 19.5192 7.92741 19.5127 7.59863H20.9092C20.9287 7.80046 20.9808 7.97461 21.0654 8.12109C21.1533 8.26432 21.2689 8.375 21.4121 8.45312C21.5553 8.53125 21.723 8.57031 21.915 8.57031C22.0941 8.57031 22.2471 8.53613 22.374 8.46777C22.501 8.39941 22.6035 8.30501 22.6816 8.18457C22.7598 8.06087 22.8167 7.91764 22.8525 7.75488C22.8916 7.58887 22.9111 7.40983 22.9111 7.21777C22.9111 7.02572 22.8883 6.85156 22.8428 6.69531C22.7972 6.53906 22.7272 6.40397 22.6328 6.29004C22.5384 6.17611 22.418 6.08822 22.2715 6.02637C22.1283 5.96452 21.9606 5.93359 21.7686 5.93359C21.5081 5.93359 21.3063 5.97428 21.1631 6.05566C21.0231 6.13704 20.9059 6.22982 20.8115 6.33398Z" fill="white"/>
</g>
<defs>
<clipPath id="clip0_1_934">
<rect width="28" height="28" fill="white"/>
</clipPath>
</defs>
</svg>
