<svg width="28" height="28" viewBox="0 0 28 28" fill="none" xmlns="http://www.w3.org/2000/svg">
<path d="M24.3219 19.3428C24.0527 19.1423 23.7395 19.0047 23.4065 18.9405C23.0735 18.8763 22.7297 18.8873 22.4018 18.9726L18.6194 19.8144C18.7074 19.4546 18.7101 19.0802 18.6274 18.7192C18.5446 18.3582 18.3785 18.0201 18.1415 17.7301C17.9045 17.4401 17.6028 17.2058 17.2589 17.0447C16.9151 16.8836 16.538 16.8 16.156 16.8H11.6306C11.2505 16.7991 10.8741 16.8711 10.5229 17.0118C10.1718 17.1525 9.85296 17.3592 9.58483 17.6199L7.53998 19.6H4.9464C4.56279 19.6 4.19489 19.7475 3.92364 20.0101C3.65239 20.2726 3.5 20.6287 3.5 21L3.5 24.5C3.5 24.8713 3.65239 25.2274 3.92364 25.49C4.19489 25.7525 4.56279 25.9 4.9464 25.9H14.348C14.4071 25.9 14.466 25.893 14.5234 25.879L20.309 24.479C20.3459 24.4705 20.3819 24.4588 20.4166 24.444L23.9304 22.9968L23.9702 22.9793C24.3079 22.8159 24.5971 22.5721 24.8105 22.2706C25.0239 21.9692 25.1546 21.6202 25.1901 21.2564C25.2257 20.8926 25.1649 20.5261 25.0137 20.1913C24.8624 19.8565 24.6256 19.5645 24.3255 19.3428H24.3219ZM4.9464 21H7.116V24.5H4.9464V21ZM23.3365 21.7184L19.9013 23.1341L14.2576 24.5H8.56241V20.5896L10.6082 18.6104C10.742 18.4798 10.9013 18.3763 11.0768 18.3058C11.2523 18.2354 11.4406 18.1994 11.6306 18.2H16.156C16.4437 18.2 16.7196 18.3106 16.9231 18.5075C17.1265 18.7045 17.2408 18.9715 17.2408 19.25C17.2408 19.5285 17.1265 19.7956 16.9231 19.9925C16.7196 20.1894 16.4437 20.3 16.156 20.3H13.6248C13.433 20.3 13.2491 20.3738 13.1134 20.505C12.9778 20.6363 12.9016 20.8144 12.9016 21C12.9016 21.1857 12.9778 21.3637 13.1134 21.495C13.2491 21.6263 13.433 21.7 13.6248 21.7H16.5176C16.572 21.6999 16.6263 21.694 16.6794 21.6825L22.7362 20.3341L22.7643 20.3271C22.9492 20.2775 23.1465 20.2957 23.3183 20.3784C23.4901 20.4611 23.6243 20.6023 23.695 20.775C23.7657 20.9477 23.7679 21.1396 23.7012 21.3137C23.6345 21.4879 23.5037 21.632 23.3338 21.7184H23.3365Z" fill="#141414"/>
<path d="M8.09375 8.75C8.09375 9.52562 8.24652 10.2936 8.54334 11.0102C8.84015 11.7268 9.2752 12.3779 9.82365 12.9263C10.3721 13.4748 11.0232 13.9098 11.7398 14.2067C12.4564 14.5035 13.2244 14.6563 14 14.6562C14.7756 14.6563 15.5436 14.5035 16.2602 14.2067C16.9768 13.9098 17.6279 13.4748 18.1763 12.9263C18.7248 12.3779 19.1598 11.7268 19.4567 11.0102C19.7535 10.2936 19.9063 9.52562 19.9062 8.75C19.9063 7.97438 19.7535 7.20636 19.4567 6.48978C19.1598 5.7732 18.7248 5.1221 18.1763 4.57365C17.6279 4.0252 16.9768 3.59015 16.2602 3.29334C15.5436 2.99652 14.7756 2.84375 14 2.84375C13.2244 2.84375 12.4564 2.99652 11.7398 3.29334C11.0232 3.59015 10.3721 4.0252 9.82365 4.57365C9.2752 5.1221 8.84015 5.7732 8.54334 6.48978C8.24652 7.20636 8.09375 7.97438 8.09375 8.75Z" stroke="#141414" stroke-width="1.5" stroke-linecap="round" stroke-linejoin="round"/>
<path d="M14.4484 8.17369L14.4484 8.17369L14.4476 8.17427L14.4405 8.17912C14.2671 8.2978 14.0296 8.46036 13.8437 8.68877L13.8437 8.68881C13.6175 8.96693 13.4818 9.31711 13.4818 9.77453V9.97111C13.4818 10.1085 13.5364 10.2403 13.6336 10.3375C13.7308 10.4347 13.8626 10.4893 14 10.4893C14.1374 10.4893 14.2692 10.4347 14.3664 10.3375C14.4636 10.2403 14.5181 10.1085 14.5181 9.97111V9.77453C14.5181 9.54447 14.5788 9.42775 14.6474 9.34269C14.7348 9.23602 14.854 9.15278 15.0591 9.01185L15.0592 9.01186L15.0599 9.01131L15.0803 8.99707C15.2751 8.86358 15.5421 8.67768 15.7475 8.3902C15.9665 8.08634 16.0907 7.7069 16.0907 7.21906C16.0907 6.66456 15.8705 6.13277 15.4784 5.74068C15.0863 5.34859 14.5545 5.12831 14 5.12831C13.4455 5.12831 12.9137 5.34859 12.5216 5.74068C12.1295 6.13277 11.9092 6.66456 11.9092 7.21906C11.9092 7.35648 11.9638 7.48828 12.061 7.58545C12.1582 7.68262 12.29 7.73721 12.4274 7.73721C12.5648 7.73721 12.6966 7.68262 12.7938 7.58545C12.891 7.48828 12.9455 7.35648 12.9455 7.21906C12.9455 6.63625 13.4172 6.16461 14 6.16461C14.5828 6.16461 15.0544 6.63625 15.0544 7.21906C15.0544 7.51662 14.9828 7.67849 14.9056 7.78675C14.8169 7.91028 14.6916 8.00668 14.4934 8.14344L14.4484 8.17369ZM14 12.3717C14.1635 12.3717 14.3203 12.3068 14.4359 12.1912C14.5515 12.0756 14.6164 11.9188 14.6164 11.7553C14.6164 11.5918 14.5515 11.435 14.4359 11.3194C14.3203 11.2038 14.1635 11.1389 14 11.1389C13.8365 11.1389 13.6797 11.2038 13.5641 11.3194C13.4485 11.435 13.3836 11.5918 13.3836 11.7553C13.3836 11.9188 13.4485 12.0756 13.5641 12.1912C13.6797 12.3068 13.8365 12.3717 14 12.3717Z" fill="#141414" stroke="#141414" stroke-width="0.25"/>
</svg>
