<svg width="28" height="28" viewBox="0 0 28 28" fill="none" xmlns="http://www.w3.org/2000/svg">
<path d="M17.7012 4.375C17.5087 4.375 17.3512 4.24375 17.29 4.06875C16.8087 2.7125 15.5137 1.75 14 1.75C12.4862 1.75 11.1912 2.7125 10.71 4.06875C10.6487 4.2525 10.4825 4.375 10.2987 4.375H5.25874C4.77749 4.375 4.38374 4.76875 4.38374 5.25V25.375C4.38374 25.8563 4.77749 26.25 5.25874 26.25H22.7587C23.24 26.25 23.6337 25.8563 23.6337 25.375V5.25C23.6337 4.76875 23.24 4.375 22.7587 4.375H17.7187H17.7012ZM13.9912 3.5C14.6387 3.5 15.2075 3.85 15.505 4.375H12.4775C12.7837 3.85 13.3437 3.5 13.9912 3.5ZM21.4287 24.5H6.56249C6.31749 24.5 6.12499 24.3075 6.12499 24.0625V6.5625C6.12499 6.3175 6.31749 6.125 6.56249 6.125H21.4375C21.6825 6.125 21.875 6.3175 21.875 6.5625V24.0625C21.875 24.3075 21.6825 24.5 21.4375 24.5H21.4287Z" fill="#141414"/>
<g clip-path="url(#clip0_1_944)">
<path d="M15.7023 12.4099L15.703 12.4102C15.8438 12.4754 16.0135 12.4516 16.1209 12.3262L16.4459 11.947C16.5846 11.7852 16.5479 11.5225 16.3445 11.423C15.6414 11.0664 14.8412 10.8583 13.995 10.8583C13.1485 10.8583 12.3228 11.0714 11.614 11.4383L11.614 11.4383L11.6138 11.4384C11.4141 11.5424 11.3736 11.804 11.5201 11.9676L11.8496 12.3462L11.8496 12.3462L11.851 12.3478C11.9556 12.4631 12.1284 12.4969 12.2686 12.4289C12.7904 12.1776 13.3756 12.0354 13.995 12.0354H14.0356L14.0404 12.0308C14.6356 12.0367 15.2017 12.1735 15.7023 12.4099Z" fill="#141414" stroke="#141414" stroke-width="0.2"/>
<path d="M19.0235 14.9708L19.0236 14.9713C19.0599 15.1831 18.887 15.3701 18.675 15.3701H18.165C17.9945 15.3701 17.8614 15.2512 17.8272 15.0918L17.827 15.0907L17.827 15.0907C17.681 14.3715 17.3256 13.7227 16.8236 13.211L16.8234 13.2108L16.8234 13.2108C16.7006 13.0848 16.6822 12.89 16.8043 12.7499L17.1238 12.3762C17.1238 12.3762 17.1239 12.3761 17.1239 12.3761L17.124 12.376L17.2 12.441C17.295 12.3292 17.47 12.3194 17.57 12.4215L19.0235 14.9708ZM19.0235 14.9708C18.8447 13.9576 18.3443 13.0548 17.641 12.3512L19.0235 14.9708Z" fill="#141414" stroke="#141414" stroke-width="0.2"/>
<path d="M10.1536 16.4346L10.1528 16.4347C10.1229 16.2686 9.98318 16.1472 9.81 16.1472H9.305C9.09824 16.1472 8.92717 16.3282 8.95592 16.5379L8.95591 16.5379L8.9562 16.5398C9.0888 17.3877 9.43059 18.1667 9.94108 18.817C10.071 18.9849 10.321 18.9865 10.4647 18.8467L10.8197 18.5016L10.8197 18.5016L10.8217 18.4995C10.9399 18.3778 10.9556 18.1914 10.8497 18.0534C10.4991 17.5846 10.2558 17.0356 10.1536 16.4346Z" fill="#141414" stroke="#141414" stroke-width="0.2"/>
<path d="M19.045 16.5269L19.0439 16.5343C18.9162 17.3832 18.569 18.1624 18.0586 18.8125L17.98 18.7507L18.0592 18.8118C17.9294 18.98 17.6791 18.9817 17.5353 18.8418L17.1803 18.4967L19.045 16.5269ZM19.045 16.5269V16.5223C19.0599 16.4179 19.0219 16.3193 18.9476 16.2488C18.8721 16.1772 18.7634 16.1375 18.64 16.1375H18.19C18.0133 16.1375 17.8741 16.268 17.8464 16.4296L17.8464 16.4298C17.7442 17.0308 17.5009 17.5798 17.1503 18.0486L19.045 16.5269Z" fill="#141414" stroke="#141414" stroke-width="0.2"/>
<path d="M11.0999 12.6623L11.0996 12.6626L11.1779 12.7671C11.2951 12.9041 11.2864 13.0972 11.1617 13.2253M11.0999 12.6623L11.09 13.1556M11.0999 12.6623L11.0934 12.6552L10.8543 12.3934M11.0999 12.6623L10.78 12.4604M11.1617 13.2253C11.1617 13.2253 11.1616 13.2253 11.1616 13.2253L11.09 13.1556M11.1617 13.2253C11.1617 13.2253 11.1617 13.2252 11.1617 13.2252L11.09 13.1556M11.1617 13.2253C10.6697 13.732 10.3195 14.3706 10.1783 15.0842M11.09 13.1556C10.585 13.6757 10.225 14.3319 10.08 15.066M10.1783 15.0842C10.1784 15.0838 10.1785 15.0833 10.1786 15.0829L10.08 15.066M10.1783 15.0842C10.1493 15.2496 10.0068 15.3653 9.84 15.3653H9.33C9.11803 15.3653 8.94513 15.1782 8.98144 14.9664L8.98156 14.9657L8.98156 14.9657C9.16032 13.9677 9.64543 13.0745 10.339 12.3754L10.41 12.4458M10.1783 15.0842C10.1783 15.0846 10.1782 15.085 10.1781 15.0854L10.08 15.066M10.08 15.066L10.41 12.4458M10.41 12.4458L10.3386 12.3759C10.4817 12.2298 10.7233 12.2467 10.8543 12.3934M10.41 12.4458C10.51 12.3438 10.685 12.3535 10.78 12.4604M10.8543 12.3934L10.8538 12.393L10.78 12.4604M10.8543 12.3934C10.8544 12.3936 10.8546 12.3938 10.8548 12.394L10.78 12.4604" fill="#141414" stroke="#141414" stroke-width="0.2"/>
<path d="M13.6796 14.2326H13.6864L13.33 16.8986C13.26 17.3021 13.58 17.6667 14 17.6667C14.42 17.6667 14.74 17.3021 14.67 16.8986L14.7686 16.8817L14.7685 16.8816C14.7685 16.8816 14.7685 16.8815 14.7685 16.8815L14.2937 14.1165C14.2937 14.1163 14.2936 14.1162 14.2936 14.1161C14.2664 13.9512 14.1269 13.8722 13.9994 13.8722C13.872 13.8722 13.7323 13.9507 13.7017 14.1143L13.6796 14.2326Z" fill="#141414" stroke="#141414" stroke-width="0.2"/>
</g>
<defs>
<clipPath id="clip0_1_944">
<rect width="12" height="10" fill="white" transform="translate(8 9.5)"/>
</clipPath>
</defs>
</svg>
