<svg width="28" height="28" viewBox="0 0 28 28" fill="none" xmlns="http://www.w3.org/2000/svg">
<path d="M22.8812 22.75H18.5062C18.025 22.75 17.6312 22.3563 17.6312 21.875C17.6312 21.3937 18.025 21 18.5062 21H22.8812C23.3625 21 23.7562 21.3937 23.7562 21.875C23.7562 22.3563 23.3625 22.75 22.8812 22.75Z" fill="#141414"/>
<path d="M20.6937 24.9375C20.2125 24.9375 19.8187 24.5437 19.8187 24.0625V19.6875C19.8187 19.2062 20.2125 18.8125 20.6937 18.8125C21.175 18.8125 21.5687 19.2062 21.5687 19.6875V24.0625C21.5687 24.5437 21.175 24.9375 20.6937 24.9375Z" fill="#141414"/>
<path d="M20.6937 17.5C23.1087 17.5 25.0687 19.46 25.0687 21.875C25.0687 24.29 23.1087 26.25 20.6937 26.25C18.2787 26.25 16.3187 24.29 16.3187 21.875C16.3187 19.46 18.2787 17.5 20.6937 17.5ZM20.6937 15.75C17.3075 15.75 14.5687 18.4887 14.5687 21.875C14.5687 25.2612 17.3075 28 20.6937 28C24.08 28 26.8187 25.2612 26.8187 21.875C26.8187 18.4887 24.08 15.75 20.6937 15.75Z" fill="#141414"/>
<path d="M17.7012 4.375C17.5087 4.375 17.3512 4.24375 17.29 4.06875C16.8087 2.7125 15.5137 1.75 14 1.75C12.4862 1.75 11.1912 2.7125 10.71 4.06875C10.6487 4.2525 10.4825 4.375 10.2987 4.375H5.24999C4.76874 4.375 4.38374 4.76 4.38374 5.24125V25.3838C4.38374 25.865 4.76874 26.25 5.24999 26.25H12.705C13.3175 26.25 13.755 25.62 13.51 25.06C13.51 25.06 13.51 25.0513 13.51 25.0425C13.37 24.7188 13.0637 24.5 12.705 24.5H6.57999C6.33499 24.5 6.14249 24.3075 6.14249 24.0625V6.5625C6.14249 6.3175 6.33499 6.125 6.57999 6.125H21.455C21.7 6.125 21.8925 6.3175 21.8925 6.5625V13.3787C21.8925 13.7725 22.155 14.1225 22.5312 14.21C22.5312 14.21 22.54 14.21 22.5487 14.21C23.1 14.3412 23.6425 13.9475 23.6425 13.3787V5.24125C23.6425 4.76 23.2575 4.375 22.7762 4.375H17.7275H17.7012ZM12.4862 4.375C12.7837 3.85 13.3437 3.5 13.9912 3.5C14.6387 3.5 15.2075 3.85 15.505 4.375H12.4862Z" fill="#141414"/>
<path d="M19.25 11.375C19.25 11.8563 18.865 12.25 18.375 12.25H9.625C9.14375 12.25 8.75 11.8563 8.75 11.375C8.75 10.8937 9.14375 10.5 9.625 10.5H18.375C18.865 10.5 19.25 10.8937 19.25 11.375Z" fill="#141414"/>
<path d="M9.625 14.875H14.4812C15.2425 14.875 15.6363 15.7938 15.1025 16.3363L15.085 16.3538C14.9187 16.52 14.7 16.625 14.4638 16.625H9.625C9.14375 16.625 8.75 16.2313 8.75 15.75C8.75 15.2687 9.14375 14.875 9.625 14.875Z" fill="#141414"/>
<path d="M12.9762 20.3087V20.3262C12.8975 20.72 12.5387 21 12.1363 21H9.625C9.14375 21 8.75 20.6063 8.75 20.125C8.75 19.6437 9.14375 19.25 9.625 19.25H12.1363C12.6962 19.25 13.09 19.7662 12.9762 20.3087Z" fill="#141414"/>
</svg>
