<svg width="28" height="28" viewBox="0 0 28 28" fill="none" xmlns="http://www.w3.org/2000/svg">
<path d="M1.33563 14.5638L1.33567 14.5638L13.4147 26.0935L13.4148 26.0935C13.5706 26.2421 13.7812 26.325 14 26.325C14.2188 26.325 14.4294 26.2421 14.5852 26.0935L14.5853 26.0935L26.6643 14.5638L26.6644 14.5638C26.7805 14.4527 26.8601 14.3109 26.8923 14.156C26.9245 14.0011 26.9079 13.8405 26.8447 13.6948C26.7815 13.5491 26.6748 13.4252 26.5385 13.3381C26.4023 13.2512 26.2424 13.2048 26.0791 13.2047L26.0791 13.2047L20.8695 13.2047L20.8695 3.43142C20.8695 2.96443 20.6751 2.51732 20.3303 2.18823C19.9857 1.85925 19.5189 1.675 19.0329 1.675L8.96706 1.675C8.48108 1.675 8.01434 1.85925 7.66969 2.18823C7.32491 2.51732 7.13053 2.96443 7.13053 3.43142L7.13053 13.2047L1.92094 13.2047L1.92088 13.2047C1.75759 13.2048 1.59775 13.2512 1.46151 13.3381C1.32523 13.4252 1.21848 13.5491 1.15529 13.6948C1.09208 13.8405 1.07546 14.0011 1.10771 14.156C1.13995 14.3109 1.21947 14.4527 1.33563 14.5638ZM7.96047 14.7959C8.17949 14.7959 8.3902 14.7129 8.54608 14.5641C8.70208 14.4152 8.79041 14.2125 8.79041 14.0003L8.79041 3.43142C8.79041 3.38876 8.80813 3.3471 8.8409 3.31582C8.87379 3.28443 8.91911 3.26622 8.96706 3.26622L19.0329 3.26622C19.0809 3.26622 19.1262 3.28443 19.1591 3.31582C19.1919 3.3471 19.2096 3.38876 19.2096 3.43142L19.2096 14.0003C19.2096 14.2125 19.2979 14.4152 19.4539 14.5641C19.6098 14.7129 19.8205 14.7959 20.0395 14.7959L24.0687 14.7959L14 24.4067L3.93132 14.7959L7.96047 14.7959Z" fill="#141414" stroke="#141414" stroke-width="0.15"/>
<path d="M16.3333 12.0556C16.3333 11.643 16.1695 11.2473 15.8777 10.9556C15.586 10.6639 15.1903 10.5 14.7778 10.5C14.3652 10.5 13.9696 10.6639 13.6778 10.9556C13.3861 11.2473 13.2222 11.643 13.2222 12.0556L13.2222 15.9444C13.2222 16.357 13.0583 16.7527 12.7666 17.0444C12.4749 17.3361 12.0792 17.5 11.6667 17.5L16.3333 17.5M11.6667 14.3889L14.7778 14.3889" stroke="#141414" stroke-width="1.25" stroke-linecap="round" stroke-linejoin="round"/>
</svg>
