<svg width="24" height="24" viewBox="0 0 24 24" fill="none" xmlns="http://www.w3.org/2000/svg">
<path d="M5 22C4.5 22 4 21.8 3.6 21.4C3.2 21 3 20.5 3 20V6C3 5.5 3.2 5 3.6 4.6C4 4.2 4.5 4 5 4H9.2C9.4 3.4 9.8 2.9 10.3 2.5C10.8 2.2 11.4 2 12 2C12.6 2 13.2 2.2 13.7 2.6C14.2 3 14.6 3.4 14.8 4.1H19C19.5 4.1 20 4.3 20.4 4.7C20.8 5.1 21 5.5 21 6V20C21 20.5 20.8 21 20.4 21.4C20 21.8 19.5 22 19 22H5ZM5 20H19V6H5V20ZM8 18H13C13.3 18 13.5 17.9 13.7 17.7C13.9 17.5 14 17.3 14 17C14 16.7 13.9 16.5 13.7 16.3C13.5 16.1 13.3 16 13 16H8C7.7 16 7.5 16.1 7.3 16.3C7.1 16.5 7 16.7 7 17C7 17.3 7.1 17.5 7.3 17.7C7.5 17.9 7.7 18 8 18ZM8 14H16C16.3 14 16.5 13.9 16.7 13.7C16.9 13.5 17 13.3 17 13C17 12.7 16.9 12.5 16.7 12.3C16.5 12.1 16.3 12 16 12H8C7.7 12 7.5 12.1 7.3 12.3C7.1 12.5 7 12.7 7 13C7 13.3 7.1 13.5 7.3 13.7C7.5 13.9 7.7 14 8 14ZM8 10H16C16.3 10 16.5 9.9 16.7 9.7C16.9 9.5 17 9.3 17 9C17 8.7 16.9 8.5 16.7 8.3C16.5 8.1 16.3 8 16 8H8C7.7 8 7.5 8.1 7.3 8.3C7.1 8.5 7 8.7 7 9C7 9.3 7.1 9.5 7.3 9.7C7.5 9.9 7.7 10 8 10ZM12 5.2C12.2 5.2 12.4 5.1 12.5 5C12.6 4.9 12.7 4.7 12.7 4.5C12.7 4.3 12.6 4.1 12.5 4C12.4 3.8 12.2 3.8 12 3.8C11.8 3.8 11.6 3.8 11.5 4C11.3 4.1 11.3 4.3 11.2 4.5C11.2 4.7 11.3 4.9 11.4 5C11.6 5.2 11.8 5.2 12 5.2Z" fill="#757575"/>
</svg>
