<svg width="24" height="24" viewBox="0 0 24 24" fill="none" xmlns="http://www.w3.org/2000/svg">
<path d="M7 15H13C13.3 15 13.5 14.9 13.7 14.7C13.9 14.5 14 14.3 14 14C14 13.7 13.9 13.5 13.7 13.3C13.5 13.1 13.3 13 13 13H7C6.7 13 6.5 13.1 6.3 13.3C6.1 13.5 6 13.7 6 14C6 14.3 6.1 14.5 6.3 14.7C6.5 14.9 6.7 15 7 15ZM7 12H17C17.3 12 17.5 11.9 17.7 11.7C17.9 11.5 18 11.3 18 11C18 10.7 17.9 10.5 17.7 10.3C17.5 10.1 17.3 10 17 10H7C6.7 10 6.5 10.1 6.3 10.3C6.1 10.5 6 10.7 6 11C6 11.3 6.1 11.5 6.3 11.7C6.5 11.9 6.7 12 7 12ZM7 9H17C17.3 9 17.5 8.9 17.7 8.7C17.9 8.5 18 8.3 18 8C18 7.7 17.9 7.5 17.7 7.3C17.5 7.1 17.3 7 17 7H7C6.7 7 6.5 7.1 6.3 7.3C6.1 7.5 6 7.7 6 8C6 8.3 6.1 8.5 6.3 8.7C6.5 8.9 6.7 9 7 9ZM2 20.6V5C2 4.5 2.2 4 2.6 3.6C3 3.2 3.5 3 4 3H20C20.5 3 21 3.2 21.4 3.6C21.8 4 22 4.5 22 5V17C22 17.6 21.8 18 21.4 18.4C21 18.8 20.5 19 20 19H6L3.7 21.3C3.4 21.6 3 21.7 2.6 21.5C2.2 21.3 2 21 2 20.6ZM4 18.2L5.2 17H20V5H4V18.2Z" fill="#757575"/>
</svg>
