<svg width="24" height="24" viewBox="0 0 24 24" fill="none" xmlns="http://www.w3.org/2000/svg">
<path d="M12 5C13.25 5 14.44 5.29 15.49 5.8C15.7 5.9 15.94 5.86 16.09 5.68L16.74 4.9C16.94 4.66 16.88 4.28 16.6 4.14C15.22 3.42 13.65 3 11.99 3C10.33 3 8.71 3.43 7.32 4.17C7.04 4.32 6.98 4.7 7.19 4.94L7.85 5.72C8 5.89 8.25 5.94 8.45 5.84C9.52 5.31 10.72 5.01 11.99 5.01L12 5Z" fill="#757575"/>
<path d="M20.33 11.87H21.35C21.66 11.87 21.9 11.59 21.85 11.29C21.5 9.25002 20.52 7.43002 19.14 6.01002C18.94 5.80002 18.59 5.82002 18.4 6.05002L17.76 6.82002C17.59 7.02002 17.61 7.30002 17.79 7.49002C18.82 8.57002 19.55 9.94002 19.85 11.46C19.9 11.7 20.09 11.87 20.33 11.87Z" fill="#757575"/>
<path d="M4.11 14.3C4.32 15.57 4.82 16.73 5.54 17.72C5.69 17.92 5.67 18.19 5.5 18.37L4.79 19.08C4.58 19.29 4.22 19.28 4.04 19.04C3.04 17.73 2.37 16.16 2.11 14.45C2.07 14.15 2.31 13.88 2.61 13.88H3.62C3.87 13.88 4.07 14.06 4.11 14.31V14.3Z" fill="#757575"/>
<path d="M21.89 14.44C21.64 16.15 20.96 17.72 19.96 19.03C19.78 19.27 19.42 19.28 19.21 19.07L18.5 18.36C18.32 18.18 18.31 17.91 18.46 17.71C19.18 16.72 19.68 15.56 19.89 14.29C19.93 14.05 20.13 13.86 20.38 13.86H21.28C21.69 13.86 21.94 14.13 21.89 14.43V14.44Z" fill="#757575"/>
<path d="M6.21 6.85L5.56 6.09C5.37 5.87 5.02 5.85 4.82 6.06C3.46 7.47 2.51 9.27 2.16 11.28C2.11 11.58 2.35 11.86 2.66 11.86H3.68C3.92 11.86 4.12 11.69 4.16 11.45C4.45 9.94 5.17 8.59 6.18 7.52C6.36 7.33 6.37 7.05 6.2 6.85H6.21Z" fill="#757575"/>
<path d="M11.61 9.53001L10.66 15.22C10.52 16.05 11.16 16.8 12 16.8C12.84 16.8 13.48 16.05 13.34 15.22L12.39 9.53001C12.32 9.09001 11.68 9.09001 11.6 9.53001H11.61Z" fill="#757575"/>
</svg>
