<svg width="24" height="24" viewBox="0 0 24 24" fill="none" xmlns="http://www.w3.org/2000/svg">
<path d="M13 8V4C13 3.7 13.1 3.5 13.3 3.3C13.5 3.1 13.7 3 14 3H20C20.3 3 20.5 3.1 20.7 3.3C20.9 3.5 21 3.7 21 4V8C21 8.3 20.9 8.5 20.7 8.7C20.5 8.9 20.3 9 20 9H14C13.7 9 13.5 8.9 13.3 8.7C13.1 8.5 13 8.3 13 8ZM3 12V4C3 3.7 3.1 3.5 3.3 3.3C3.5 3.1 3.7 3 4 3H10C10.3 3 10.5 3.1 10.7 3.3C10.9 3.5 11 3.7 11 4V12C11 12.3 10.9 12.5 10.7 12.7C10.5 12.9 10.3 13 10 13H4C3.7 13 3.5 12.9 3.3 12.7C3.1 12.5 3 12.3 3 12ZM13 20V12C13 11.7 13.1 11.5 13.3 11.3C13.5 11.1 13.7 11 14 11H20C20.3 11 20.5 11.1 20.7 11.3C20.9 11.5 21 11.7 21 12V20C21 20.3 20.9 20.5 20.7 20.7C20.5 20.9 20.3 21 20 21H14C13.7 21 13.5 20.9 13.3 20.7C13.1 20.5 13 20.3 13 20ZM3 20V16C3 15.7 3.1 15.5 3.3 15.3C3.5 15.1 3.7 15 4 15H10C10.3 15 10.5 15.1 10.7 15.3C10.9 15.5 11 15.7 11 16V20C11 20.3 10.9 20.5 10.7 20.7C10.5 20.9 10.3 21 10 21H4C3.7 21 3.5 20.9 3.3 20.7C3.1 20.5 3 20.3 3 20ZM5 11H9V5H5V11ZM15 19H19V13H15V19ZM15 7H19V5H15V7ZM5 19H9V17H5V19Z" fill="#1976D2"/>
</svg>
