<svg width="24" height="24" viewBox="0 0 24 24" fill="none" xmlns="http://www.w3.org/2000/svg">
<path d="M6 14C5.5 14 5 13.8 4.6 13.4C4.2 13 4 12.5 4 12C4 11.5 4.2 11 4.6 10.6C5 10.2 5.5 10 6 10C6.5 10 7 10.2 7.4 10.6C7.8 11 8 11.5 8 12C8 12.5 7.8 13 7.4 13.4C7 13.8 6.5 14 6 14ZM12 14C11.4 14 11 13.8 10.6 13.4C10.2 13 10 12.5 10 12C10 11.5 10.2 11 10.6 10.6C11 10.2 11.5 10 12 10C12.6 10 13 10.2 13.4 10.6C13.8 11 14 11.5 14 12C14 12.5 13.8 13 13.4 13.4C13 13.8 12.5 14 12 14ZM18 14C17.4 14 17 13.8 16.6 13.4C16.2 13 16 12.5 16 12C16 11.5 16.2 11 16.6 10.6C17 10.2 17.5 10 18 10C18.6 10 19 10.2 19.4 10.6C19.8 11 20 11.5 20 12C20 12.5 19.8 13 19.4 13.4C19 13.8 18.5 14 18 14Z" fill="#757575"/>
</svg>
