<svg width="46" height="36" viewBox="0 0 46 36" fill="none" xmlns="http://www.w3.org/2000/svg">
<path fill-rule="evenodd" clip-rule="evenodd" d="M45.7552 25.1585C45.4732 24.4316 44.1971 24.0369 42.7726 24.0992C42.4164 24.1685 41.9935 24.2308 41.6374 24.3623C39.8642 24.8885 30.8571 27.7339 30.7903 27.8031H30.5752L30.7161 27.9346C31.7103 28.7308 32.2742 29.5892 31.9923 30.3162C31.7103 31.3131 30.219 31.9085 27.8077 32.1023C25.6784 32.3031 22.9852 32.1023 19.8616 31.5069C20.1435 31.5069 20.5739 31.5069 20.9226 31.5692C23.1929 31.5692 25.3223 31.5692 27.0213 31.4377C29.5735 31.2369 30.8497 30.7108 30.9906 29.8523C31.0648 29.1877 30.7087 28.7239 29.7813 28.3292C28.8613 27.8654 26.8061 27.6023 24.8919 27.27C23.5416 27.1385 22.2655 26.9377 21.3455 26.7439C18.2219 25.9477 15.0316 25.2208 11.3442 25.4908C10.7729 25.56 10.1348 25.6223 9.63774 25.6916C6.72935 26.1554 3.96193 26.8131 1.05354 27.6092H0.704834L5.03032 33.4316C5.73516 33.3 6.58838 33.0992 7.36741 33.0992C8.36161 32.9677 9.3558 33.03 10.2758 33.0992C11.411 33.3 14.4603 33.8954 17.2945 34.4216C20.2697 35.0169 23.1113 35.4808 24.0981 35.6816C24.8103 35.7508 25.3742 35.7508 26.0123 35.6816C27.4293 35.6192 28.9206 34.8854 30.3377 34.1585C30.7606 33.8954 31.191 33.6946 31.6139 33.4939L44.4494 27.0069C45.8664 26.2108 45.8664 25.5531 45.7255 25.1516L45.7552 25.1585Z" fill="#07AD5D"/>
<rect x="12" y="5" width="24" height="17" rx="1" fill="#07AD5D"/>
<path fill-rule="evenodd" clip-rule="evenodd" d="M19.9106 1C19.3584 1 18.9106 1.44772 18.9106 2V5.95675H20.548V2.65227H27.0969V5.95675H28.734V2C28.734 1.44772 28.2863 1 27.734 1H19.9106Z" fill="#07AD5D"/>
</svg>
