<svg width="46" height="36" viewBox="0 0 46 36" fill="none" xmlns="http://www.w3.org/2000/svg">
<path fill-rule="evenodd" clip-rule="evenodd" d="M45.7552 25.1585C45.4732 24.4316 44.1971 24.0369 42.7726 24.0992C42.4165 24.1685 41.9935 24.2308 41.6374 24.3623C39.8642 24.8885 30.8571 27.7339 30.7903 27.8031H30.5752L30.7161 27.9346C31.7103 28.7308 32.2742 29.5892 31.9923 30.3162C31.7103 31.3131 30.219 31.9085 27.8077 32.1023C25.6784 32.3031 22.9852 32.1023 19.8616 31.5069C20.1435 31.5069 20.5739 31.5069 20.9226 31.5692C23.1929 31.5692 25.3223 31.5692 27.0213 31.4377C29.5735 31.2369 30.8497 30.7108 30.9906 29.8523C31.0648 29.1877 30.7087 28.7239 29.7813 28.3292C28.8613 27.8654 26.8061 27.6023 24.8919 27.27C23.5416 27.1385 22.2655 26.9377 21.3455 26.7439C18.2219 25.9477 15.0316 25.2208 11.3442 25.4908C10.7729 25.56 10.1348 25.6223 9.63774 25.6916C6.72935 26.1554 3.96193 26.8131 1.05355 27.6092H0.704838L5.03032 33.4316C5.73516 33.3 6.58839 33.0992 7.36742 33.0992C8.36161 32.9677 9.35581 33.03 10.2758 33.0992C11.411 33.3 14.4603 33.8954 17.2945 34.4216C20.2697 35.0169 23.1113 35.4808 24.0981 35.6816C24.8103 35.7508 25.3742 35.7508 26.0123 35.6816C27.4294 35.6192 28.9206 34.8854 30.3377 34.1585C30.7606 33.8954 31.191 33.6946 31.6139 33.4939L44.4494 27.0069C45.8665 26.2108 45.8664 25.5531 45.7255 25.1516L45.7552 25.1585Z" fill="#9870FF"/>
<path fill-rule="evenodd" clip-rule="evenodd" d="M34 13.58C31.8402 16.0892 28.9069 18.4566 27.3016 19.8813C26.2582 20.7602 24.164 23 23.6022 23C23.0403 23 21.0921 21.0366 19.9757 20.0159L19.837 19.8813C18.2318 18.5913 15.2328 16.0892 13 13.58H19.4868C19.6254 13.58 19.837 13.5092 19.837 13.3745L20.3916 12.29L21.2307 16.557C21.2964 16.8263 21.435 16.961 21.7196 16.961C21.9312 16.961 22.0698 16.7555 22.1355 16.557L22.8287 11L23.4562 14.6574C23.4562 14.863 23.6678 14.9976 23.8065 14.9976C24.0108 14.9976 24.2224 14.9268 24.2953 14.7283L24.9229 13.2398L25.689 15.3379C25.762 15.4725 25.9006 15.6072 26.0393 15.6072C26.2509 15.6072 26.3895 15.5363 26.4552 15.4017L27.4329 13.5729H33.9927L34 13.58Z" fill="#9870FF"/>
<path fill-rule="evenodd" clip-rule="evenodd" d="M36.8481 8.6431C36.6423 9.86092 35.7973 11.2132 34.8127 12.573H27.2295C27.0164 12.573 26.8768 12.6477 26.8107 12.7897L26.1788 14L25.4072 11.7138C25.3337 11.4971 25.1941 11.3552 24.9884 11.3552C24.8488 11.3552 24.7092 11.4971 24.5696 11.6391L24.0772 12.9241L23.2322 7.78391C23.1587 7.56724 23.0191 7.42529 22.8134 7.42529C22.5342 7.42529 22.3211 7.56724 22.3211 7.78391L21.623 13.7833L20.9911 10.5707C20.9249 10.354 20.778 10.2121 20.6384 10.2121C20.4253 10.2121 20.2195 10.2868 20.1461 10.4287L19.1614 12.573H12.2102C11.1595 11.146 10.3879 9.78621 10.1748 8.6431C9.75599 6.43161 10.1013 4.64598 11.086 3.36092C12.1367 2.07586 13.8929 1.29138 16.281 1.07471C16.4941 1 16.6998 1 16.9129 1C19.0218 1 21.1233 1.92644 22.4607 3.50287C22.7399 3.78678 23.0926 3.92874 23.5188 3.92874C23.945 3.92874 24.2903 3.78678 24.5696 3.50287C25.8334 1.93391 28.0084 1 30.1173 1C30.3304 1 30.5361 1 30.6757 1.07471C33.1373 1.29138 34.82 2.07586 35.8708 3.36092C36.9289 4.64598 37.2081 6.43161 36.8554 8.6431H36.8481Z" fill="#9870FF"/>
</svg>
