<svg width="46" height="36" viewBox="0 0 46 36" fill="none" xmlns="http://www.w3.org/2000/svg">
<g clip-path="url(#clip0_1_1333)">
<path fill-rule="evenodd" clip-rule="evenodd" d="M32.3484 4.64538H34.9748C36.11 4.71461 36.8148 5.3723 36.8148 6.36922C36.889 8.02384 36.8148 9.74076 36.889 11.3954C36.889 11.79 36.6739 11.9215 36.251 11.9215H30.9313C30.5084 11.9215 30.3674 11.79 30.219 11.4577C29.0171 8.94461 26.9619 7.61538 23.9793 7.61538C21.071 7.55307 18.9416 8.94461 17.7397 11.4577C17.5987 11.8523 17.3835 11.9215 16.9606 11.9215H11.7152C11.2181 11.9215 11.0771 11.7208 11.0771 11.3261C11.1439 9.74076 11.0771 8.08615 11.1439 6.49384C11.1439 5.3723 11.8561 4.63845 13.0581 4.63845C14.7645 4.63845 16.4635 4.57615 18.1626 4.63845C18.8748 4.70768 19.09 4.43768 19.0158 3.8423C18.9416 3.37845 19.0158 2.91461 19.0158 2.38845C19.09 1.39845 19.7948 0.733838 20.8632 0.733838C22.9926 0.664608 25.0477 0.664608 27.1029 0.733838C28.2381 0.733838 28.8761 1.39845 28.9429 2.45076C29.0171 3.17768 28.5868 4.10538 29.1581 4.49999C29.6552 4.8323 30.6493 4.63153 31.3542 4.63153H32.3484V4.64538Z" fill="#5C95FF"/>
<path fill-rule="evenodd" clip-rule="evenodd" d="M23.9793 22.9154H13.4142C11.7819 22.9154 11.1439 22.32 11.1439 20.7969C11.0771 18.81 11.1439 16.7608 11.0771 14.7046C11.0771 14.1092 11.2848 13.9777 11.9303 13.9777H16.3968C17.0348 13.9777 17.1758 14.04 17.3168 14.6354C17.6729 17.8823 20.5813 20.3262 23.9793 20.3262C27.3774 20.3262 30.3674 17.8754 30.7161 14.6354C30.7903 14.1092 30.8571 13.9777 31.3542 13.9777H36.251C36.6739 13.9777 36.889 14.1092 36.889 14.5038C36.8148 16.7538 36.889 18.9415 36.8148 21.1223C36.8148 22.2438 36.11 22.9085 34.8264 22.9085H23.9793V22.9154Z" fill="#5C95FF"/>
<path fill-rule="evenodd" clip-rule="evenodd" d="M23.2004 16.8923V14.7046H20.7891V13.1815H23.2004V11.0008H24.7584V13.1815H27.1697V14.7046H24.7584V16.8923H23.2004Z" fill="#5C95FF"/>
<path fill-rule="evenodd" clip-rule="evenodd" d="M45.7552 25.1585C45.4732 24.4316 44.1971 24.0369 42.7726 24.0992C42.4164 24.1685 41.9935 24.2308 41.6374 24.3623C39.8642 24.8885 30.8571 27.7339 30.7903 27.8031H30.5752L30.7161 27.9346C31.7103 28.7308 32.2742 29.5892 31.9923 30.3162C31.7103 31.3131 30.219 31.9085 27.8077 32.1023C25.6784 32.3031 22.9852 32.1023 19.8616 31.5069C20.1435 31.5069 20.5739 31.5069 20.9226 31.5692C23.1929 31.5692 25.3223 31.5692 27.0213 31.4377C29.5735 31.2369 30.8497 30.7108 30.9906 29.8523C31.0648 29.1877 30.7087 28.7239 29.7813 28.3292C28.8613 27.8654 26.8061 27.6023 24.8919 27.27C23.5416 27.1385 22.2655 26.9377 21.3455 26.7439C18.2219 25.9477 15.0316 25.2208 11.3442 25.4908C10.7729 25.56 10.1348 25.6223 9.63774 25.6916C6.72935 26.1554 3.96193 26.8131 1.05354 27.6092H0.704834L5.03032 33.4316C5.73516 33.3 6.58838 33.0992 7.36741 33.0992C8.36161 32.9677 9.3558 33.03 10.2758 33.0992C11.411 33.3 14.4603 33.8954 17.2945 34.4216C20.2697 35.0169 23.1113 35.4808 24.0981 35.6816C24.8103 35.7508 25.3742 35.7508 26.0123 35.6816C27.4293 35.6192 28.9206 34.8854 30.3377 34.1585C30.7606 33.8954 31.191 33.6946 31.6139 33.4939L44.4494 27.0069C45.8664 26.2108 45.8664 25.5531 45.7255 25.1516L45.7552 25.1585Z" fill="#5C95FF"/>
</g>
<defs>
<clipPath id="clip0_1_1333">
<rect width="46" height="36" fill="white"/>
</clipPath>
</defs>
</svg>
