<svg width="28" height="28" viewBox="0 0 28 28" fill="none" xmlns="http://www.w3.org/2000/svg">
<path d="M20.6667 12.6667H23.3333C24.0406 12.6667 24.7189 12.9476 25.219 13.4477C25.719 13.9478 26 14.6261 26 15.3333V18C26 18.3536 25.8595 18.6928 25.6095 18.9428C25.3594 19.1929 25.0203 19.3333 24.6667 19.3333H22.6667M20.6667 12.6667H12M20.6667 12.6667L17.444 7.29467C17.2071 6.8998 16.8719 6.57301 16.4712 6.34612C16.0705 6.11924 15.6178 6 15.1573 6H12M22.6667 19.3333C22.6667 20.0406 22.3857 20.7189 21.8856 21.219C21.3855 21.719 20.7072 22 20 22C19.2928 22 18.6145 21.719 18.1144 21.219C17.6143 20.7189 17.3333 20.0406 17.3333 19.3333M22.6667 19.3333C22.6667 18.6261 22.3857 17.9478 21.8856 17.4477C21.3855 16.9476 20.7072 16.6667 20 16.6667C19.2928 16.6667 18.6145 16.9476 18.1144 17.4477C17.6143 17.9478 17.3333 18.6261 17.3333 19.3333M12 12.6667V6M12 12.6667H4.66667M12 6H8.18667C7.56996 5.99976 6.97224 6.21327 6.49526 6.60419C6.01828 6.9951 5.69154 7.53926 5.57067 8.144L4.66667 12.6667M4.66667 12.6667C3.95942 12.6667 3.28115 12.9476 2.78105 13.4477C2.28095 13.9478 2 14.6261 2 15.3333V18C2 18.3536 2.14048 18.6928 2.39052 18.9428C2.64057 19.1929 2.97971 19.3333 3.33333 19.3333H5.33333M5.33333 19.3333C5.33333 20.0406 5.61428 20.7189 6.11438 21.219C6.61448 21.719 7.29276 22 8 22C8.70724 22 9.38552 21.719 9.88562 21.219C10.3857 20.7189 10.6667 20.0406 10.6667 19.3333M5.33333 19.3333C5.33333 18.6261 5.61428 17.9478 6.11438 17.4477C6.61448 16.9476 7.29276 16.6667 8 16.6667C8.70724 16.6667 9.38552 16.9476 9.88562 17.4477C10.3857 17.9478 10.6667 18.6261 10.6667 19.3333M10.6667 19.3333H17.3333" stroke="#141414" stroke-width="1.5" stroke-linecap="round" stroke-linejoin="round"/>
</svg>
