<svg width="28" height="28" viewBox="0 0 28 28" fill="none" xmlns="http://www.w3.org/2000/svg">
<path d="M7.08375 4.49C7.21284 4.33633 7.3731 4.21295 7.5535 4.12837C7.73389 4.04378 7.93014 3.99999 8.12875 4H19.8713C20.0699 3.99999 20.2661 4.04378 20.4465 4.12837C20.6269 4.21295 20.7872 4.33633 20.9163 4.49L24.5036 8.7516C24.8239 9.13216 25 9.61682 25 10.118V10.475C25.0001 11.168 24.7875 11.8436 24.392 12.4076C23.9965 12.9715 23.4378 13.3956 22.7941 13.6204C22.1503 13.8453 21.4536 13.8598 20.8014 13.6618C20.1492 13.4638 19.574 13.0633 19.1562 12.5162C18.8512 12.9163 18.4603 13.24 18.0134 13.4625C17.5665 13.685 17.0756 13.8005 16.5781 13.8C16.0807 13.8006 15.5897 13.6852 15.1428 13.4626C14.6959 13.2401 14.305 12.9164 14 12.5162C13.695 12.9164 13.3041 13.2401 12.8572 13.4626C12.4103 13.6852 11.9193 13.8006 11.4219 13.8C10.9244 13.8006 10.4334 13.6852 9.98654 13.4626C9.53965 13.2401 9.14874 12.9164 8.84375 12.5162C8.42601 13.0633 7.85084 13.4638 7.19861 13.6618C6.54639 13.8598 5.84971 13.8453 5.20595 13.6204C4.56218 13.3956 4.00351 12.9715 3.608 12.4076C3.21249 11.8436 2.99992 11.168 3 10.475V10.118C3.00002 9.61682 3.17608 9.13216 3.49637 8.7516L7.08512 4.4886L7.08375 4.49ZM9.53125 10.475C9.53125 10.9855 9.73044 11.4752 10.085 11.8362C10.4396 12.1972 10.9205 12.4 11.4219 12.4C11.9233 12.4 12.4042 12.1972 12.7587 11.8362C13.1133 11.4752 13.3125 10.9855 13.3125 10.475C13.3125 10.2893 13.3849 10.1113 13.5139 9.98003C13.6428 9.84875 13.8177 9.775 14 9.775C14.1823 9.775 14.3572 9.84875 14.4861 9.98003C14.6151 10.1113 14.6875 10.2893 14.6875 10.475C14.6875 10.9855 14.8867 11.4752 15.2413 11.8362C15.5958 12.1972 16.0767 12.4 16.5781 12.4C17.0795 12.4 17.5604 12.1972 17.915 11.8362C18.2696 11.4752 18.4688 10.9855 18.4688 10.475C18.4688 10.2893 18.5412 10.1113 18.6701 9.98003C18.799 9.84875 18.9739 9.775 19.1562 9.775C19.3386 9.775 19.5135 9.84875 19.6424 9.98003C19.7713 10.1113 19.8438 10.2893 19.8438 10.475C19.8438 10.9855 20.0429 11.4752 20.3975 11.8362C20.7521 12.1972 21.233 12.4 21.7344 12.4C22.2358 12.4 22.7167 12.1972 23.0712 11.8362C23.4258 11.4752 23.625 10.9855 23.625 10.475V10.118C23.625 9.95116 23.5665 9.7898 23.46 9.663L19.8713 5.4H8.12875L4.54 9.663C4.4335 9.7898 4.37499 9.95116 4.375 10.118V10.475C4.375 10.9855 4.57419 11.4752 4.92875 11.8362C5.28331 12.1972 5.7642 12.4 6.26562 12.4C6.76705 12.4 7.24794 12.1972 7.6025 11.8362C7.95706 11.4752 8.15625 10.9855 8.15625 10.475C8.15625 10.2893 8.22868 10.1113 8.35761 9.98003C8.48655 9.84875 8.66141 9.775 8.84375 9.775C9.02609 9.775 9.20095 9.84875 9.32989 9.98003C9.45882 10.1113 9.53125 10.2893 9.53125 10.475ZM5.0625 14.5C5.24484 14.5 5.4197 14.5737 5.54864 14.705C5.67757 14.8363 5.75 15.0143 5.75 15.2V23.6H7.125V16.6C7.125 16.2287 7.26987 15.8726 7.52773 15.6101C7.78559 15.3475 8.13533 15.2 8.5 15.2H12.625C12.9897 15.2 13.3394 15.3475 13.5973 15.6101C13.8551 15.8726 14 16.2287 14 16.6V23.6H22.25V15.2C22.25 15.0143 22.3224 14.8363 22.4514 14.705C22.5803 14.5737 22.7552 14.5 22.9375 14.5C23.1198 14.5 23.2947 14.5737 23.4236 14.705C23.5526 14.8363 23.625 15.0143 23.625 15.2V23.6H24.3125C24.4948 23.6 24.6697 23.6737 24.7986 23.805C24.9276 23.9363 25 24.1143 25 24.3C25 24.4857 24.9276 24.6637 24.7986 24.795C24.6697 24.9263 24.4948 25 24.3125 25H3.6875C3.50516 25 3.3303 24.9263 3.20136 24.795C3.07243 24.6637 3 24.4857 3 24.3C3 24.1143 3.07243 23.9363 3.20136 23.805C3.3303 23.6737 3.50516 23.6 3.6875 23.6H4.375V15.2C4.375 15.0143 4.44743 14.8363 4.57636 14.705C4.7053 14.5737 4.88016 14.5 5.0625 14.5ZM8.5 23.6H12.625V16.6H8.5V23.6ZM15.375 16.6C15.375 16.2287 15.5199 15.8726 15.7777 15.6101C16.0356 15.3475 16.3853 15.2 16.75 15.2H19.5C19.8647 15.2 20.2144 15.3475 20.4723 15.6101C20.7301 15.8726 20.875 16.2287 20.875 16.6V20.8C20.875 21.1713 20.7301 21.5274 20.4723 21.7899C20.2144 22.0525 19.8647 22.2 19.5 22.2H16.75C16.3853 22.2 16.0356 22.0525 15.7777 21.7899C15.5199 21.5274 15.375 21.1713 15.375 20.8V16.6ZM19.5 16.6H16.75V20.8H19.5V16.6Z" fill="black"/>
</svg>
