<svg width="28" height="28" viewBox="0 0 28 28" fill="none" xmlns="http://www.w3.org/2000/svg">
<path d="M3.5 10.5V19.8333C3.5 20.4522 3.74583 21.0457 4.18342 21.4833C4.621 21.9208 5.21449 22.1667 5.83333 22.1667H22.1667C22.7855 22.1667 23.379 21.9208 23.8166 21.4833C24.2542 21.0457 24.5 20.4522 24.5 19.8333V10.5M3.5 10.5V8.16668C3.5 7.54784 3.74583 6.95435 4.18342 6.51676C4.621 6.07918 5.21449 5.83334 5.83333 5.83334H22.1667C22.7855 5.83334 23.379 6.07918 23.8166 6.51676C24.2542 6.95435 24.5 7.54784 24.5 8.16668V10.5M3.5 10.5H24.5M8.16667 15.1667H14" stroke="black" stroke-width="1.5" stroke-linecap="round" stroke-linejoin="round"/>
</svg>
