<svg width="28" height="28" viewBox="0 0 28 28" fill="none" xmlns="http://www.w3.org/2000/svg">
<path d="M14 3.84666L14.3426 3.0682C14.2343 3.0232 14.1178 3 14 3C13.8822 3 13.7657 3.0232 13.6574 3.0682L14 3.84666ZM14 24.1541L13.568 24.8886C13.6996 24.9616 13.8485 25 14 25C14.1515 25 14.3004 24.9616 14.432 24.8886L14 24.1541ZM9.38271 21.5897L8.94955 22.3253L9.38155 21.5897H9.38271ZM13.6563 3.06933L6.23329 6.15945L6.91613 7.71636L14.3414 4.62511L13.6574 3.0682L13.6563 3.06933ZM5 7.97471V15.7141H6.74194V7.97471H5ZM8.94955 22.3253L13.568 24.8886L14.432 23.4197L9.81355 20.8553L8.94955 22.3253ZM14.432 24.8886L19.0505 22.3253L18.1865 20.8553L13.568 23.4197L14.432 24.8886ZM23 15.713V7.97584H21.2581V15.7152H23V15.713ZM21.769 6.16058L14.3426 3.06933L13.6574 4.62398L21.0827 7.71636L21.7679 6.16058H21.769ZM23 7.97584C23 7.18611 22.5157 6.47196 21.769 6.16058L21.0827 7.71636C21.1349 7.73821 21.1793 7.77443 21.2104 7.82056C21.2416 7.86668 21.2582 7.92067 21.2581 7.97584H23ZM19.0505 22.3253C20.2502 21.6593 21.2473 20.697 21.9409 19.536C22.6345 18.375 22.9999 17.0565 23 15.7141H21.2581C21.2578 16.758 20.9736 17.7833 20.4342 18.6862C19.8948 19.589 19.1194 20.3373 18.1865 20.8553L19.0505 22.3253ZM5 15.7141C5.00012 17.0565 5.36549 18.375 6.05909 19.536C6.75268 20.697 7.74985 21.6593 8.94955 22.3253L9.81355 20.8553C8.88046 20.3372 8.10491 19.5887 7.56549 18.6857C7.02608 17.7826 6.74196 16.7571 6.74194 15.713H5V15.7141ZM6.23097 6.15945C5.86563 6.31173 5.55429 6.56476 5.3355 6.88721C5.1167 7.20966 5.00005 7.5885 5 7.97471H6.74194C6.74194 7.86189 6.81161 7.75923 6.91845 7.7141L6.23097 6.16171V6.15945Z" fill="#141414"/>
<path d="M11 14.1333L13 16L17 12" stroke="#141414" stroke-width="1.5" stroke-linecap="round" stroke-linejoin="round"/>
</svg>
