<svg width="28" height="28" viewBox="0 0 28 28" fill="none" xmlns="http://www.w3.org/2000/svg">
<path d="M6.12479 15.0002V14.8752H5.99979H4.99981C4.9998 14.8752 4.9998 14.8752 4.99979 14.8752C4.82676 14.8752 4.65764 14.8238 4.51379 14.7277C4.36993 14.6315 4.25781 14.4949 4.1916 14.335C4.12538 14.1752 4.10806 13.9993 4.1418 13.8295C4.17555 13.6598 4.25885 13.504 4.38118 13.3816C4.38118 13.3816 4.38118 13.3816 4.38119 13.3816L13.3812 4.38159L13.3813 4.38151C13.4624 4.3002 13.5588 4.23569 13.665 4.19167C13.7711 4.14766 13.8849 4.125 13.9998 4.125C14.1147 4.125 14.2285 4.14766 14.3346 4.19167C14.4407 4.23569 14.5371 4.3002 14.6183 4.38151L14.6184 4.38159L23.6184 13.3816C23.6184 13.3816 23.6184 13.3816 23.6184 13.3816C23.7407 13.504 23.824 13.6598 23.8578 13.8295C23.8915 13.9993 23.8742 14.1752 23.808 14.335C23.7418 14.4949 23.6296 14.6315 23.4858 14.7277C23.3419 14.8238 23.1728 14.8752 22.9998 14.8752H21.9998H21.8748V15.0002V22.0002C21.8748 23.0342 21.0338 23.8752 19.9998 23.8752H7.99979C6.96582 23.8752 6.12479 23.0342 6.12479 22.0002V15.0002ZM11.8748 22.0002V22.1252H11.9998H15.9998H16.1248V22.0002V17.0002V16.8752H15.9998H11.9998H11.8748V17.0002V22.0002ZM14.0882 6.32581L13.9998 6.23742L13.9114 6.32581L7.9114 12.3258L7.87479 12.3624V12.4142V22.0002V22.1252H7.99979H9.99979H10.1248V22.0002V17.0002C10.1248 15.9662 10.9658 15.1252 11.9998 15.1252H15.9998C17.0338 15.1252 17.8748 15.9662 17.8748 17.0002V22.0002V22.1252H17.9998H20.0008H20.1258L20.1258 22.0002L20.1248 17.0002V12.4142V12.3624L20.0882 12.3258L14.0882 6.32581Z" fill="#141414" stroke="white" stroke-width="0.25"/>
</svg>
