<svg width="28" height="28" viewBox="0 0 28 28" fill="none" xmlns="http://www.w3.org/2000/svg">
<path d="M2.75 18.2V18.2C2.75019 17.8247 2.82446 17.4531 2.96855 17.1066C3.11264 16.76 3.32372 16.4454 3.58969 16.1806C3.85566 15.9158 4.17128 15.7062 4.51845 15.5636C4.86556 15.4211 5.23738 15.3485 5.6126 15.35C5.61267 15.35 5.61274 15.35 5.6128 15.35M2.75 18.2L5.6128 15.35M2.75 18.2C2.75 20.5865 3.92676 22.3865 5.7621 23.5579L5.76213 23.558M2.75 18.2L5.76213 23.558M5.6128 15.35L5.614 15.35H13.0561C13.3378 15.35 13.559 15.518 13.6743 15.7427C13.7894 15.967 13.8016 16.2523 13.6624 16.4937C13.5391 16.7076 13.3131 16.85 13.0632 16.85H5.6126C4.85449 16.85 4.25 17.4537 4.25 18.2C4.25 20.0149 5.11167 21.3621 6.5691 22.292L6.5422 22.3342M5.6128 15.35L6.5422 22.3342M6.5422 22.3342L6.56911 22.292C8.05652 23.2415 10.177 23.75 12.6 23.75C12.7382 23.75 12.8758 23.7483 13.0123 23.7449C13.284 23.738 13.535 23.8855 13.67 24.1195C13.8055 24.3546 13.804 24.6305 13.7008 24.8497C13.5973 25.0697 13.3899 25.2351 13.1145 25.2428C12.9437 25.2476 12.7721 25.25 12.6 25.25C9.99702 25.25 7.5675 24.7085 5.76213 23.558M6.5422 22.3342L5.76213 23.558M12.6 2.74999C11.1015 2.74999 9.66443 3.34525 8.60485 4.40483C7.54527 5.46442 6.95 6.90151 6.95 8.39999C6.95 9.89846 7.54527 11.3356 8.60485 12.3951C9.66443 13.4547 11.1015 14.05 12.6 14.05C14.0985 14.05 15.5356 13.4547 16.5952 12.3951C17.6547 11.3356 18.25 9.89846 18.25 8.39999C18.25 6.90151 17.6547 5.46442 16.5952 4.40483C15.5356 3.34525 14.0985 2.74999 12.6 2.74999ZM8.45 8.39999C8.45 7.29934 8.88723 6.24377 9.66551 5.46549C10.4438 4.68722 11.4994 4.24999 12.6 4.24999C13.7007 4.24999 14.7562 4.68722 15.5345 5.46549C16.3128 6.24377 16.75 7.29934 16.75 8.39999C16.75 9.50064 16.3128 10.5562 15.5345 11.3345C14.7562 12.1128 13.7007 12.55 12.6 12.55C11.4994 12.55 10.4438 12.1128 9.66551 11.3345C8.88723 10.5562 8.45 9.50064 8.45 8.39999ZM15.8099 15.8099C14.619 17.0007 13.95 18.6159 13.95 20.3C13.95 21.9841 14.619 23.5993 15.8099 24.7901C17.0007 25.981 18.6159 26.65 20.3 26.65C21.9841 26.65 23.5993 25.981 24.7901 24.7901C25.981 23.5993 26.65 21.9841 26.65 20.3C26.65 18.6159 25.981 17.0007 24.7901 15.8099C23.5993 14.619 21.9841 13.95 20.3 13.95C18.6159 13.95 17.0007 14.619 15.8099 15.8099ZM15.8192 22.156C15.5755 21.5676 15.45 20.9369 15.45 20.3C15.45 19.0137 15.961 17.7801 16.8705 16.8705C17.7801 15.961 19.0137 15.45 20.3 15.45C21.5863 15.45 22.8199 15.961 23.7295 16.8705C24.639 17.7801 25.15 19.0137 25.15 20.3C25.15 20.9369 25.0246 21.5676 24.7808 22.156C24.5371 22.7444 24.1798 23.2791 23.7295 23.7295C23.2791 24.1798 22.7444 24.5371 22.156 24.7808C21.5676 25.0245 20.9369 25.15 20.3 25.15C19.6631 25.15 19.0324 25.0245 18.444 24.7808C17.8556 24.5371 17.3209 24.1798 16.8705 23.7295C16.4202 23.2791 16.0629 22.7444 15.8192 22.156Z" fill="#141414" stroke="#141414" stroke-width="0.1"/>
<path d="M22 18.6111C22 17.7222 21.1113 17.5 20.6667 17.5C20.222 17.5 19.3333 17.7222 19.3333 18.6111V20.2778M19.3333 20.2778V21.3889C19.3333 21.7594 19.0667 22.5 18 22.5H22M19.3333 20.2778H20.6667M19.3333 20.2778H18" stroke="#141414" stroke-width="1.25" stroke-linecap="round" stroke-linejoin="round"/>
</svg>
