<svg width="50" height="60" viewBox="0 0 50 60" fill="none" xmlns="http://www.w3.org/2000/svg">
<g clip-path="url(#clip0_1_1033)">
<g style="mix-blend-mode:overlay" filter="url(#filter0_d_1_1033)">
<path d="M25 58.0227C-5.66537 58.0227 -0.645512 30.4969 14.4414 11.3523H35.5586C50.6455 30.4969 55.6654 58.0227 25 58.0227Z" fill="url(#paint0_linear_1_1033)" shape-rendering="crispEdges"/>
</g>
<g style="mix-blend-mode:overlay" filter="url(#filter1_d_1_1033)">
<path d="M33.8374 4.32512C31.516 4.32512 30.8898 2.52697 29.2702 2.52697C27.6507 2.52697 27.71 4.6183 25 4.6183C22.2899 4.6183 22.3493 2.52697 20.7298 2.52697C19.1102 2.52697 18.484 4.32512 16.1626 4.32512C13.8413 4.32512 13.7117 1.35427 11.25 3.04817C11.4605 5.80403 12.7292 8.31232 14.5647 10.0909H35.4353C37.2762 8.3058 38.5395 5.80403 38.75 3.04817C36.2883 1.34775 36.1587 4.3186 33.8374 4.3186V4.32512Z" fill="url(#paint1_linear_1_1033)" shape-rendering="crispEdges"/>
</g>
<g style="mix-blend-mode:overlay" filter="url(#filter2_d_1_1033)">
<path d="M29.8955 48.3645C36.4217 45.5535 39.5208 37.7736 36.8176 30.9874C34.1143 24.2012 26.6324 20.9787 20.1061 23.7896C13.5799 26.6005 10.4808 34.3805 13.184 41.1666C15.8873 47.9528 23.3692 51.1754 29.8955 48.3645Z" fill="url(#paint2_linear_1_1033)" shape-rendering="crispEdges"/>
</g>
<g filter="url(#filter3_d_1_1033)">
<path d="M27.0928 29.4513C27.3481 29.4813 27.6034 29.5155 27.8546 29.5712C28.1634 29.6397 28.464 29.7253 28.7481 29.8752C28.8181 29.9137 28.8387 29.9565 28.8222 30.0336C28.7564 30.3333 28.6987 30.633 28.637 30.9328C28.5505 31.3352 28.464 31.7377 28.3817 32.1359C28.3652 32.2258 28.3364 32.2472 28.254 32.2044C27.904 32.0203 27.5293 31.9432 27.1422 31.909C26.8499 31.8833 26.5617 31.879 26.2734 31.9347C25.5034 32.0802 25.0505 32.6497 24.9846 33.4504C24.9352 34.0156 24.9969 34.5722 25.104 35.1288C25.1246 35.223 25.1616 35.2487 25.244 35.2487C26.0058 35.2487 26.7675 35.2487 27.5293 35.2487C27.7969 35.2487 27.7681 35.2187 27.7681 35.497C27.7681 36.0622 27.7681 36.6317 27.7681 37.1968C27.7681 37.3381 27.7681 37.3424 27.624 37.3424C26.924 37.3424 26.224 37.3424 25.5199 37.3424C25.3716 37.3424 25.3758 37.3424 25.3799 37.4966C25.384 37.8434 25.3593 38.1859 25.2728 38.5199C25.1122 39.1407 24.7911 39.6631 24.3422 40.0998C24.3216 40.1212 24.2805 40.1384 24.3011 40.1726C24.3216 40.2069 24.3628 40.1897 24.3958 40.1897C25.6228 40.1897 26.854 40.1897 28.0811 40.1897C28.4764 40.1897 28.8717 40.1897 29.2711 40.1897C29.3987 40.1897 29.407 40.1983 29.407 40.3353C29.407 41.076 29.407 41.8125 29.407 42.5532C29.407 42.6603 29.374 42.6902 29.2711 42.6902C26.4216 42.6902 23.5763 42.6902 20.7269 42.6902C20.5951 42.6902 20.5869 42.6902 20.5869 42.5489C20.5869 42.0951 20.5869 41.6412 20.5869 41.1874C20.5869 41.0932 20.6199 41.0418 20.7022 41.0033C21.2252 40.7506 21.674 40.3953 22.0487 39.9371C22.3987 39.5089 22.6416 39.0208 22.7281 38.4599C22.7816 38.1046 22.7487 37.7492 22.6993 37.3981C22.691 37.3253 22.6334 37.3381 22.5881 37.3381C22.1393 37.3381 21.6946 37.3381 21.2457 37.3381C21.1346 37.3381 21.0234 37.3381 20.9122 37.3381C20.8381 37.3381 20.8093 37.3124 20.8093 37.2354C20.8093 36.606 20.8093 35.9766 20.8093 35.3429C20.8093 35.253 20.8546 35.2401 20.9246 35.2401C21.3487 35.2401 21.7728 35.2401 22.1928 35.2401C22.341 35.2401 22.341 35.2401 22.3163 35.086C22.2422 34.6492 22.201 34.2082 22.1928 33.7629C22.1846 33.095 22.2793 32.4442 22.5469 31.8319C22.8557 31.1254 23.3293 30.5645 23.9634 30.1535C24.5811 29.7553 25.2564 29.5498 25.9728 29.4727C25.9975 29.4727 26.0264 29.4599 26.0511 29.4556H27.0887L27.0928 29.4513Z" fill="white"/>
</g>
</g>
<defs>
<filter id="filter0_d_1_1033" x="-0.5" y="7.35226" width="53" height="54.6704" filterUnits="userSpaceOnUse" color-interpolation-filters="sRGB">
<feFlood flood-opacity="0" result="BackgroundImageFix"/>
<feColorMatrix in="SourceAlpha" type="matrix" values="0 0 0 0 0 0 0 0 0 0 0 0 0 0 0 0 0 0 127 0" result="hardAlpha"/>
<feOffset dx="1"/>
<feGaussianBlur stdDeviation="2"/>
<feComposite in2="hardAlpha" operator="out"/>
<feColorMatrix type="matrix" values="0 0 0 0 0 0 0 0 0 0.158167 0 0 0 0 0.304167 0 0 0 0.12 0"/>
<feBlend mode="normal" in2="BackgroundImageFix" result="effect1_dropShadow_1_1033"/>
<feBlend mode="normal" in="SourceGraphic" in2="effect1_dropShadow_1_1033" result="shape"/>
</filter>
<filter id="filter1_d_1_1033" x="8.25" y="-1.47726" width="35.5" height="15.5682" filterUnits="userSpaceOnUse" color-interpolation-filters="sRGB">
<feFlood flood-opacity="0" result="BackgroundImageFix"/>
<feColorMatrix in="SourceAlpha" type="matrix" values="0 0 0 0 0 0 0 0 0 0 0 0 0 0 0 0 0 0 127 0" result="hardAlpha"/>
<feOffset dx="1"/>
<feGaussianBlur stdDeviation="2"/>
<feComposite in2="hardAlpha" operator="out"/>
<feColorMatrix type="matrix" values="0 0 0 0 0 0 0 0 0 0.156863 0 0 0 0 0.305882 0 0 0 0.12 0"/>
<feBlend mode="normal" in2="BackgroundImageFix" result="effect1_dropShadow_1_1033"/>
<feBlend mode="normal" in="SourceGraphic" in2="effect1_dropShadow_1_1033" result="shape"/>
</filter>
<filter id="filter2_d_1_1033" x="9.20706" y="18.7737" width="33.5875" height="34.6066" filterUnits="userSpaceOnUse" color-interpolation-filters="sRGB">
<feFlood flood-opacity="0" result="BackgroundImageFix"/>
<feColorMatrix in="SourceAlpha" type="matrix" values="0 0 0 0 0 0 0 0 0 0 0 0 0 0 0 0 0 0 127 0" result="hardAlpha"/>
<feOffset dx="1"/>
<feGaussianBlur stdDeviation="2"/>
<feComposite in2="hardAlpha" operator="out"/>
<feColorMatrix type="matrix" values="0 0 0 0 0 0 0 0 0 0.156863 0 0 0 0 0.305882 0 0 0 0.08 0"/>
<feBlend mode="normal" in2="BackgroundImageFix" result="effect1_dropShadow_1_1033"/>
<feBlend mode="normal" in="SourceGraphic" in2="effect1_dropShadow_1_1033" result="shape"/>
</filter>
<filter id="filter3_d_1_1033" x="19.5869" y="28.4513" width="12.82" height="17.239" filterUnits="userSpaceOnUse" color-interpolation-filters="sRGB">
<feFlood flood-opacity="0" result="BackgroundImageFix"/>
<feColorMatrix in="SourceAlpha" type="matrix" values="0 0 0 0 0 0 0 0 0 0 0 0 0 0 0 0 0 0 127 0" result="hardAlpha"/>
<feOffset dx="1" dy="1"/>
<feGaussianBlur stdDeviation="1"/>
<feComposite in2="hardAlpha" operator="out"/>
<feColorMatrix type="matrix" values="0 0 0 0 0 0 0 0 0 0.156863 0 0 0 0 0.305882 0 0 0 0.24 0"/>
<feBlend mode="normal" in2="BackgroundImageFix" result="effect1_dropShadow_1_1033"/>
<feBlend mode="normal" in="SourceGraphic" in2="effect1_dropShadow_1_1033" result="shape"/>
</filter>
<linearGradient id="paint0_linear_1_1033" x1="25" y1="11.3523" x2="25" y2="58.0227" gradientUnits="userSpaceOnUse">
<stop stop-color="#F9F9F9" stop-opacity="0"/>
<stop offset="1" stop-color="white"/>
</linearGradient>
<linearGradient id="paint1_linear_1_1033" x1="25" y1="2.52274" x2="25" y2="10.0909" gradientUnits="userSpaceOnUse">
<stop stop-color="white" stop-opacity="0.8"/>
<stop offset="0.0001" stop-color="#FCFCFC" stop-opacity="0.8"/>
<stop offset="1" stop-color="white" stop-opacity="0"/>
<stop offset="1" stop-color="white" stop-opacity="0"/>
</linearGradient>
<linearGradient id="paint2_linear_1_1033" x1="20" y1="22.9276" x2="20" y2="49.897" gradientUnits="userSpaceOnUse">
<stop stop-color="white" stop-opacity="0"/>
<stop stop-color="#00D1FF" stop-opacity="0"/>
<stop stop-color="#FFE500" stop-opacity="0"/>
<stop stop-color="#FDFDFD" stop-opacity="0"/>
<stop offset="1" stop-color="white" stop-opacity="0.48"/>
</linearGradient>
<clipPath id="clip0_1_1033">
<rect width="50" height="60" fill="white"/>
</clipPath>
</defs>
</svg>
